<?xml version="1.0" encoding="UTF-8"?>
<svg width="350px" height="350px" viewBox="0 0 350 350" version="1.1" xmlns="http://www.w3.org/2000/svg" xmlns:xlink="http://www.w3.org/1999/xlink">
    <title>Convex_Sprite</title>
    <g id="Convex_Sprite" stroke="none" stroke-width="1" fill="none" fill-rule="evenodd">
        <polygon id="Path-Copy-7" fill="#FF4500" fill-rule="nonzero" points="11 5 7.02408835 9 6.2006747 8.17159763 8.75062799 5.60566667 1 5.60608093 1 4.39391907 8.75129064 4.39366667 6.2006747 1.82840237 7.02408835 1"></polygon>
        <polygon id="Path-Copy-7" fill="#E23D00" fill-rule="nonzero" points="11 14 7.02408835 18 6.2006747 17.1715976 8.75062799 14.6056667 1 14.6060809 1 13.3939191 8.75129064 13.3936667 6.2006747 10.8284024 7.02408835 10"></polygon>
        <polygon id="Path-Copy-9" fill="#FFFFFF" fill-rule="nonzero" points="27 7 21.0361325 13 19.801012 11.7573964 23.625942 7.9085 12 7.90912139 12 6.09087861 23.626936 6.0905 19.801012 2.24260355 21.0361325 1"></polygon>
        <polygon id="Path-Copy-9" fill="#FFFFFF" fill-rule="nonzero" opacity="0.7" points="27 27 21.0361325 33 19.801012 31.7573964 23.625942 27.9085 12 27.9091214 12 26.0908786 23.626936 26.0905 19.801012 22.2426036 21.0361325 21"></polygon>
        <polygon id="Path-Copy-8" fill="#FF4500" fill-rule="nonzero" points="53 11 43.0602209 21 41.0016867 18.9289941 47.37657 12.5141667 28 12.5152023 28 9.48479768 47.3782266 9.48416667 41.0016867 3.07100592 43.0602209 1"></polygon>
        <polygon id="Path-Copy-10" fill="#E23D00" fill-rule="nonzero" points="53 32 43.0602209 42 41.0016867 39.9289941 47.37657 33.5141667 28 33.5152023 28 30.4847977 47.3782266 30.4841667 41.0016867 24.0710059 43.0602209 22"></polygon>
        <g id="Group-4" transform="translate(54.000000, 1.000000)">
            <rect id="Rectangle-Copy" x="0" y="0" width="13" height="13"></rect>
            <g id="icons8-male-user" opacity="0.75" fill="#031322" fill-rule="nonzero">
                <path d="M6.5,0 C2.917969,0 0,2.917969 0,6.5 C0,10.082031 2.917969,13 6.5,13 C10.082031,13 13,10.082031 13,6.5 C13,2.917969 10.082031,0 6.5,0 Z M6.5,1 C9.542969,1 12,3.457031 12,6.5 C12,7.839844 11.523438,9.0625 10.734375,10.015625 C10.304688,8.796875 9.375,7.816406 8.1875,7.332031 C8.683594,6.875 9,6.222656 9,5.5 C9,4.125 7.875,3 6.5,3 C5.125,3 4,4.125 4,5.5 C4,6.222656 4.316406,6.875 4.8125,7.332031 C3.625,7.816406 2.699219,8.796875 2.269531,10.015625 C1.476563,9.0625 1,7.839844 1,6.5 C1,3.457031 3.457031,1 6.5,1 Z M6.5,4 C7.335938,4 8,4.664063 8,5.5 C8,6.335938 7.335938,7 6.5,7 C5.664063,7 5,6.335938 5,5.5 C5,4.664063 5.664063,4 6.5,4 Z M6.5,8 C8.199219,8 9.59375,9.207031 9.917969,10.808594 C8.976563,11.554688 7.792969,12 6.5,12 C5.207031,12 4.023438,11.554688 3.085938,10.808594 C3.40625,9.207031 4.800781,8 6.5,8 Z" id="Shape"></path>
            </g>
        </g>
        <g id="Group-4-Copy" transform="translate(54.000000, 29.000000)">
            <rect id="Rectangle-Copy" x="0" y="0" width="13" height="13"></rect>
            <g id="icons8-male-user" opacity="0.75" fill="#0062A9" fill-rule="nonzero">
                <path d="M6.5,0 C2.917969,0 0,2.917969 0,6.5 C0,10.082031 2.917969,13 6.5,13 C10.082031,13 13,10.082031 13,6.5 C13,2.917969 10.082031,0 6.5,0 Z M6.5,1 C9.542969,1 12,3.457031 12,6.5 C12,7.839844 11.523438,9.0625 10.734375,10.015625 C10.304688,8.796875 9.375,7.816406 8.1875,7.332031 C8.683594,6.875 9,6.222656 9,5.5 C9,4.125 7.875,3 6.5,3 C5.125,3 4,4.125 4,5.5 C4,6.222656 4.316406,6.875 4.8125,7.332031 C3.625,7.816406 2.699219,8.796875 2.269531,10.015625 C1.476563,9.0625 1,7.839844 1,6.5 C1,3.457031 3.457031,1 6.5,1 Z M6.5,4 C7.335938,4 8,4.664063 8,5.5 C8,6.335938 7.335938,7 6.5,7 C5.664063,7 5,6.335938 5,5.5 C5,4.664063 5.664063,4 6.5,4 Z M6.5,8 C8.199219,8 9.59375,9.207031 9.917969,10.808594 C8.976563,11.554688 7.792969,12 6.5,12 C5.207031,12 4.023438,11.554688 3.085938,10.808594 C3.40625,9.207031 4.800781,8 6.5,8 Z" id="Shape"></path>
            </g>
        </g>
        <g id="Group-5" transform="translate(74.500000, 7.500000) scale(-1, 1) translate(-74.500000, -7.500000) translate(68.000000, 1.000000)">
            <rect id="Rectangle-Copy-2" x="0" y="0" width="13" height="13"></rect>
            <g id="icons8-search-for-love" opacity="0.75" fill="#031322" fill-rule="nonzero">
                <path d="M7.49089517,0 C4.45423293,0 1.98179074,2.4724422 1.98179074,5.50910443 C1.98179074,6.84755888 2.46398682,8.07472021 3.26124899,9.03054902 L0,12.2917976 L0.708201585,13 L3.96945058,9.73875041 C4.92527939,10.536013 6.15244072,11.0182089 7.49089517,11.0182089 C10.5275576,11.0182089 13,8.54576667 13,5.50910443 C13,2.4724422 10.5275576,0 7.49089517,0 Z M7.49089517,1.00165535 C9.98622299,1.00165535 11.9983442,3.01377691 11.9983442,5.50910443 C11.9983442,8.00443195 9.98622299,10.0165535 7.49089517,10.0165535 C4.99556765,10.0165535 2.98344609,8.00443195 2.98344609,5.50910443 C2.98344609,3.01377691 4.99556765,1.00165535 7.49089517,1.00165535 Z" id="Shape"></path>
            </g>
        </g>
        <g id="Group-5-Copy" transform="translate(74.500000, 35.500000) scale(-1, 1) translate(-74.500000, -35.500000) translate(68.000000, 29.000000)">
            <rect id="Rectangle-Copy-2" x="0" y="0" width="13" height="13"></rect>
            <g id="icons8-search-for-love" opacity="0.75" fill="#0062A9" fill-rule="nonzero">
                <path d="M7.49089517,0 C4.45423293,0 1.98179074,2.4724422 1.98179074,5.50910443 C1.98179074,6.84755888 2.46398682,8.07472021 3.26124899,9.03054902 L0,12.2917976 L0.708201585,13 L3.96945058,9.73875041 C4.92527939,10.536013 6.15244072,11.0182089 7.49089517,11.0182089 C10.5275576,11.0182089 13,8.54576667 13,5.50910443 C13,2.4724422 10.5275576,0 7.49089517,0 Z M7.49089517,1.00165535 C9.98622299,1.00165535 11.9983442,3.01377691 11.9983442,5.50910443 C11.9983442,8.00443195 9.98622299,10.0165535 7.49089517,10.0165535 C4.99556765,10.0165535 2.98344609,8.00443195 2.98344609,5.50910443 C2.98344609,3.01377691 4.99556765,1.00165535 7.49089517,1.00165535 Z" id="Shape"></path>
            </g>
        </g>
        <g id="icons8-delete" transform="translate(1.000000, 19.000000)" fill="#FFFFFF" fill-rule="nonzero">
            <polygon id="Path" points="0.649618628 0 0 0.649618628 3.3503816 4.00000005 0 7.35038156 0.649618628 8 4.00000005 4.64961849 7.35038156 8 8 7.35038156 4.64961849 4.00000005 8 0.649618628 7.35038156 0 4.00000005 3.3503816"></polygon>
        </g>
        <path d="M84.32,6.28 L85.72,1 L83.7,1 L82,6.28 L84.32,6.28 Z M88.22,6.28 L89.62,1 L87.6,1 L85.9,6.28 L88.22,6.28 Z" id="“" fill="#0062A9" fill-rule="nonzero"></path>
        <path d="M97.06,1 L95.44,5.7 L94.3,5.7 L95.64,1 L97.06,1 Z M93.76,1 L92.14,5.7 L91,5.7 L92.34,1 L93.76,1 Z" id="Combined-Shape" fill="#2A3E55" fill-rule="nonzero"></path>
        <g id="Group-4" transform="translate(54.000000, 15.000000)">
            <rect id="Rectangle-Copy" x="0" y="0" width="13" height="13"></rect>
            <g id="icons8-male-user" opacity="0.75" fill="#FFFFFF" fill-rule="nonzero">
                <path d="M6.5,0 C2.917969,0 0,2.917969 0,6.5 C0,10.082031 2.917969,13 6.5,13 C10.082031,13 13,10.082031 13,6.5 C13,2.917969 10.082031,0 6.5,0 Z M6.5,1 C9.542969,1 12,3.457031 12,6.5 C12,7.839844 11.523438,9.0625 10.734375,10.015625 C10.304688,8.796875 9.375,7.816406 8.1875,7.332031 C8.683594,6.875 9,6.222656 9,5.5 C9,4.125 7.875,3 6.5,3 C5.125,3 4,4.125 4,5.5 C4,6.222656 4.316406,6.875 4.8125,7.332031 C3.625,7.816406 2.699219,8.796875 2.269531,10.015625 C1.476563,9.0625 1,7.839844 1,6.5 C1,3.457031 3.457031,1 6.5,1 Z M6.5,4 C7.335938,4 8,4.664063 8,5.5 C8,6.335938 7.335938,7 6.5,7 C5.664063,7 5,6.335938 5,5.5 C5,4.664063 5.664063,4 6.5,4 Z M6.5,8 C8.199219,8 9.59375,9.207031 9.917969,10.808594 C8.976563,11.554688 7.792969,12 6.5,12 C5.207031,12 4.023438,11.554688 3.085938,10.808594 C3.40625,9.207031 4.800781,8 6.5,8 Z" id="Shape"></path>
            </g>
        </g>
        <g id="Group-5" transform="translate(74.500000, 21.500000) scale(-1, 1) translate(-74.500000, -21.500000) translate(68.000000, 15.000000)">
            <rect id="Rectangle-Copy-2" x="0" y="0" width="13" height="13"></rect>
            <g id="icons8-search-for-love" opacity="0.75" fill="#FFFFFF" fill-rule="nonzero">
                <path d="M7.49089517,0 C4.45423293,0 1.98179074,2.4724422 1.98179074,5.50910443 C1.98179074,6.84755888 2.46398682,8.07472021 3.26124899,9.03054902 L0,12.2917976 L0.708201585,13 L3.96945058,9.73875041 C4.92527939,10.536013 6.15244072,11.0182089 7.49089517,11.0182089 C10.5275576,11.0182089 13,8.54576667 13,5.50910443 C13,2.4724422 10.5275576,0 7.49089517,0 Z M7.49089517,1.00165535 C9.98622299,1.00165535 11.9983442,3.01377691 11.9983442,5.50910443 C11.9983442,8.00443195 9.98622299,10.0165535 7.49089517,10.0165535 C4.99556765,10.0165535 2.98344609,8.00443195 2.98344609,5.50910443 C2.98344609,3.01377691 4.99556765,1.00165535 7.49089517,1.00165535 Z" id="Shape"></path>
            </g>
        </g>
        <polygon id="Path-Copy-7" fill="#FFFFFF" fill-rule="nonzero" points="26 44 16.0602209 54 14.0016867 51.9289941 20.37657 45.5141667 1 45.5152023 1 42.4847977 20.3782266 42.4841667 14.0016867 36.0710059 16.0602209 34"></polygon>
        <g id="Group-5" transform="translate(92.000000, 17.280000) scale(-1, 1) translate(-92.000000, -17.280000) translate(82.000000, 7.280000)">
            <rect id="Rectangle-Copy-2" x="0" y="0" width="20" height="20"></rect>
            <g id="icons8-search-for-love" opacity="0.75" fill="#031322" fill-rule="nonzero">
                <path d="M11.5244541,0 C6.85266605,0 3.04890883,3.80375722 3.04890883,8.47554528 C3.04890883,10.534706 3.79074896,12.4226465 5.01730614,13.8931523 L0,18.9104579 L1.0895409,20 L6.10684704,14.9826929 C7.57735291,16.2092507 9.46529341,16.9510906 11.5244541,16.9510906 C16.1962425,16.9510906 20,13.1473333 20,8.47554528 C20,3.80375722 16.1962425,0 11.5244541,0 Z M11.5244541,1.54100823 C15.36342,1.54100823 18.4589912,4.63657987 18.4589912,8.47554528 C18.4589912,12.3145107 15.36342,15.4100823 11.5244541,15.4100823 C7.6854887,15.4100823 4.58991706,12.3145107 4.58991706,8.47554528 C4.58991706,4.63657987 7.6854887,1.54100823 11.5244541,1.54100823 Z" id="Shape"></path>
            </g>
        </g>
        <polygon id="Path-2" fill="#0062A9" fill-rule="nonzero" points="94.2765947 29.28 95 29.9810318 88.5 36.28 82 29.9810318 82.7234053 29.28 88.5 34.8780422"></polygon>
        <polygon id="Path-3" fill="#0062A9" fill-rule="nonzero" transform="translate(110.000000, 12.792893) scale(-1, 1) translate(-110.000000, -12.792893) " points="103 1.68405722 104.402064 0.292893219 117 12.7928932 104.402064 25.2928932 103 23.9017292 114.195093 12.7928932"></polygon>
        <polygon id="Path-3" fill="#0062A9" fill-rule="nonzero" points="118 1.68405722 119.402064 0.292893219 132 12.7928932 119.402064 25.2928932 118 23.9017292 129.195093 12.7928932"></polygon>
    </g>
</svg>