<?xml version="1.0" encoding="UTF-8"?>
<svg width="350px" height="350px" viewBox="0 0 350 350" version="1.1" xmlns="http://www.w3.org/2000/svg" xmlns:xlink="http://www.w3.org/1999/xlink">
    <title>Convex_Sprite</title>
    <g id="Convex_Sprite" stroke="none" stroke-width="1" fill="none" fill-rule="evenodd">
        <polygon id="Path-Copy-7" fill="#FF4500" fill-rule="nonzero" points="11 5 7.02408835 9 6.2006747 8.17159763 8.75062799 5.60566667 1 5.60608093 1 4.39391907 8.75129064 4.39366667 6.2006747 1.82840237 7.02408835 1"></polygon>
        <polygon id="Path-Copy-7" fill="#E23D00" fill-rule="nonzero" points="11 14 7.02408835 18 6.2006747 17.1715976 8.75062799 14.6056667 1 14.6060809 1 13.3939191 8.75129064 13.3936667 6.2006747 10.8284024 7.02408835 10"></polygon>
        <polygon id="Path-Copy-9" fill="#FFFFFF" fill-rule="nonzero" points="27 7 21.0361325 13 19.801012 11.7573964 23.625942 7.9085 12 7.90912139 12 6.09087861 23.626936 6.0905 19.801012 2.24260355 21.0361325 1"></polygon>
        <polygon id="Path-Copy-9" fill="#FFFFFF" fill-rule="nonzero" opacity="0.7" points="27 27 21.0361325 33 19.801012 31.7573964 23.625942 27.9085 12 27.9091214 12 26.0908786 23.626936 26.0905 19.801012 22.2426036 21.0361325 21"></polygon>
        <polygon id="Path-Copy-8" fill="#FF4500" fill-rule="nonzero" points="53 11 43.0602209 21 41.0016867 18.9289941 47.37657 12.5141667 28 12.5152023 28 9.48479768 47.3782266 9.48416667 41.0016867 3.07100592 43.0602209 1"></polygon>
        <polygon id="Path-Copy-10" fill="#E23D00" fill-rule="nonzero" points="53 32 43.0602209 42 41.0016867 39.9289941 47.37657 33.5141667 28 33.5152023 28 30.4847977 47.3782266 30.4841667 41.0016867 24.0710059 43.0602209 22"></polygon>
        <g id="Group-4" transform="translate(54.000000, 1.000000)">
            <rect id="Rectangle-Copy" x="0" y="0" width="13" height="13"></rect>
            <g id="icons8-male-user" opacity="0.75" fill="#031322" fill-rule="nonzero">
                <path d="M6.5,0 C2.917969,0 0,2.917969 0,6.5 C0,10.082031 2.917969,13 6.5,13 C10.082031,13 13,10.082031 13,6.5 C13,2.917969 10.082031,0 6.5,0 Z M6.5,1 C9.542969,1 12,3.457031 12,6.5 C12,7.839844 11.523438,9.0625 10.734375,10.015625 C10.304688,8.796875 9.375,7.816406 8.1875,7.332031 C8.683594,6.875 9,6.222656 9,5.5 C9,4.125 7.875,3 6.5,3 C5.125,3 4,4.125 4,5.5 C4,6.222656 4.316406,6.875 4.8125,7.332031 C3.625,7.816406 2.699219,8.796875 2.269531,10.015625 C1.476563,9.0625 1,7.839844 1,6.5 C1,3.457031 3.457031,1 6.5,1 Z M6.5,4 C7.335938,4 8,4.664063 8,5.5 C8,6.335938 7.335938,7 6.5,7 C5.664063,7 5,6.335938 5,5.5 C5,4.664063 5.664063,4 6.5,4 Z M6.5,8 C8.199219,8 9.59375,9.207031 9.917969,10.808594 C8.976563,11.554688 7.792969,12 6.5,12 C5.207031,12 4.023438,11.554688 3.085938,10.808594 C3.40625,9.207031 4.800781,8 6.5,8 Z" id="Shape"></path>
            </g>
        </g>
        <g id="Group-4-Copy" transform="translate(54.000000, 29.000000)">
            <rect id="Rectangle-Copy" x="0" y="0" width="13" height="13"></rect>
            <g id="icons8-male-user" opacity="0.75" fill="#0062A9" fill-rule="nonzero">
                <path d="M6.5,0 C2.917969,0 0,2.917969 0,6.5 C0,10.082031 2.917969,13 6.5,13 C10.082031,13 13,10.082031 13,6.5 C13,2.917969 10.082031,0 6.5,0 Z M6.5,1 C9.542969,1 12,3.457031 12,6.5 C12,7.839844 11.523438,9.0625 10.734375,10.015625 C10.304688,8.796875 9.375,7.816406 8.1875,7.332031 C8.683594,6.875 9,6.222656 9,5.5 C9,4.125 7.875,3 6.5,3 C5.125,3 4,4.125 4,5.5 C4,6.222656 4.316406,6.875 4.8125,7.332031 C3.625,7.816406 2.699219,8.796875 2.269531,10.015625 C1.476563,9.0625 1,7.839844 1,6.5 C1,3.457031 3.457031,1 6.5,1 Z M6.5,4 C7.335938,4 8,4.664063 8,5.5 C8,6.335938 7.335938,7 6.5,7 C5.664063,7 5,6.335938 5,5.5 C5,4.664063 5.664063,4 6.5,4 Z M6.5,8 C8.199219,8 9.59375,9.207031 9.917969,10.808594 C8.976563,11.554688 7.792969,12 6.5,12 C5.207031,12 4.023438,11.554688 3.085938,10.808594 C3.40625,9.207031 4.800781,8 6.5,8 Z" id="Shape"></path>
            </g>
        </g>
        <g id="Group-5" transform="translate(74.500000, 7.500000) scale(-1, 1) translate(-74.500000, -7.500000) translate(68.000000, 1.000000)">
            <rect id="Rectangle-Copy-2" x="0" y="0" width="13" height="13"></rect>
            <g id="icons8-search-for-love" opacity="0.75" fill="#031322" fill-rule="nonzero">
                <path d="M7.49089517,0 C4.45423293,0 1.98179074,2.4724422 1.98179074,5.50910443 C1.98179074,6.84755888 2.46398682,8.07472021 3.26124899,9.03054902 L0,12.2917976 L0.708201585,13 L3.96945058,9.73875041 C4.92527939,10.536013 6.15244072,11.0182089 7.49089517,11.0182089 C10.5275576,11.0182089 13,8.54576667 13,5.50910443 C13,2.4724422 10.5275576,0 7.49089517,0 Z M7.49089517,1.00165535 C9.98622299,1.00165535 11.9983442,3.01377691 11.9983442,5.50910443 C11.9983442,8.00443195 9.98622299,10.0165535 7.49089517,10.0165535 C4.99556765,10.0165535 2.98344609,8.00443195 2.98344609,5.50910443 C2.98344609,3.01377691 4.99556765,1.00165535 7.49089517,1.00165535 Z" id="Shape"></path>
            </g>
        </g>
        <g id="Group-5-Copy" transform="translate(74.500000, 35.500000) scale(-1, 1) translate(-74.500000, -35.500000) translate(68.000000, 29.000000)">
            <rect id="Rectangle-Copy-2" x="0" y="0" width="13" height="13"></rect>
            <g id="icons8-search-for-love" opacity="0.75" fill="#0062A9" fill-rule="nonzero">
                <path d="M7.49089517,0 C4.45423293,0 1.98179074,2.4724422 1.98179074,5.50910443 C1.98179074,6.84755888 2.46398682,8.07472021 3.26124899,9.03054902 L0,12.2917976 L0.708201585,13 L3.96945058,9.73875041 C4.92527939,10.536013 6.15244072,11.0182089 7.49089517,11.0182089 C10.5275576,11.0182089 13,8.54576667 13,5.50910443 C13,2.4724422 10.5275576,0 7.49089517,0 Z M7.49089517,1.00165535 C9.98622299,1.00165535 11.9983442,3.01377691 11.9983442,5.50910443 C11.9983442,8.00443195 9.98622299,10.0165535 7.49089517,10.0165535 C4.99556765,10.0165535 2.98344609,8.00443195 2.98344609,5.50910443 C2.98344609,3.01377691 4.99556765,1.00165535 7.49089517,1.00165535 Z" id="Shape"></path>
            </g>
        </g>
        <g id="icons8-delete" transform="translate(1.000000, 19.000000)" fill="#FFFFFF" fill-rule="nonzero">
            <polygon id="Path" points="0.649618628 0 0 0.649618628 3.3503816 4.00000005 0 7.35038156 0.649618628 8 4.00000005 4.64961849 7.35038156 8 8 7.35038156 4.64961849 4.00000005 8 0.649618628 7.35038156 0 4.00000005 3.3503816"></polygon>
        </g>
        <path d="M84.32,6.28 L85.72,1 L83.7,1 L82,6.28 L84.32,6.28 Z M88.22,6.28 L89.62,1 L87.6,1 L85.9,6.28 L88.22,6.28 Z" id="“" fill="#0062A9" fill-rule="nonzero"></path>
        <path d="M97.06,1 L95.44,5.7 L94.3,5.7 L95.64,1 L97.06,1 Z M93.76,1 L92.14,5.7 L91,5.7 L92.34,1 L93.76,1 Z" id="Combined-Shape" fill="#2A3E55" fill-rule="nonzero"></path>
        <g id="Group-4" transform="translate(54.000000, 15.000000)">
            <rect id="Rectangle-Copy" x="0" y="0" width="13" height="13"></rect>
            <g id="icons8-male-user" opacity="0.75" fill="#FFFFFF" fill-rule="nonzero">
                <path d="M6.5,0 C2.917969,0 0,2.917969 0,6.5 C0,10.082031 2.917969,13 6.5,13 C10.082031,13 13,10.082031 13,6.5 C13,2.917969 10.082031,0 6.5,0 Z M6.5,1 C9.542969,1 12,3.457031 12,6.5 C12,7.839844 11.523438,9.0625 10.734375,10.015625 C10.304688,8.796875 9.375,7.816406 8.1875,7.332031 C8.683594,6.875 9,6.222656 9,5.5 C9,4.125 7.875,3 6.5,3 C5.125,3 4,4.125 4,5.5 C4,6.222656 4.316406,6.875 4.8125,7.332031 C3.625,7.816406 2.699219,8.796875 2.269531,10.015625 C1.476563,9.0625 1,7.839844 1,6.5 C1,3.457031 3.457031,1 6.5,1 Z M6.5,4 C7.335938,4 8,4.664063 8,5.5 C8,6.335938 7.335938,7 6.5,7 C5.664063,7 5,6.335938 5,5.5 C5,4.664063 5.664063,4 6.5,4 Z M6.5,8 C8.199219,8 9.59375,9.207031 9.917969,10.808594 C8.976563,11.554688 7.792969,12 6.5,12 C5.207031,12 4.023438,11.554688 3.085938,10.808594 C3.40625,9.207031 4.800781,8 6.5,8 Z" id="Shape"></path>
            </g>
        </g>
        <g id="Group-5" transform="translate(74.500000, 21.500000) scale(-1, 1) translate(-74.500000, -21.500000) translate(68.000000, 15.000000)">
            <rect id="Rectangle-Copy-2" x="0" y="0" width="13" height="13"></rect>
            <g id="icons8-search-for-love" opacity="0.75" fill="#FFFFFF" fill-rule="nonzero">
                <path d="M7.49089517,0 C4.45423293,0 1.98179074,2.4724422 1.98179074,5.50910443 C1.98179074,6.84755888 2.46398682,8.07472021 3.26124899,9.03054902 L0,12.2917976 L0.708201585,13 L3.96945058,9.73875041 C4.92527939,10.536013 6.15244072,11.0182089 7.49089517,11.0182089 C10.5275576,11.0182089 13,8.54576667 13,5.50910443 C13,2.4724422 10.5275576,0 7.49089517,0 Z M7.49089517,1.00165535 C9.98622299,1.00165535 11.9983442,3.01377691 11.9983442,5.50910443 C11.9983442,8.00443195 9.98622299,10.0165535 7.49089517,10.0165535 C4.99556765,10.0165535 2.98344609,8.00443195 2.98344609,5.50910443 C2.98344609,3.01377691 4.99556765,1.00165535 7.49089517,1.00165535 Z" id="Shape"></path>
            </g>
        </g>
        <polygon id="Path-Copy-7" fill="#FFFFFF" fill-rule="nonzero" points="26 44 16.0602209 54 14.0016867 51.9289941 20.37657 45.5141667 1 45.5152023 1 42.4847977 20.3782266 42.4841667 14.0016867 36.0710059 16.0602209 34"></polygon>
        <g id="Group-5" transform="translate(92.000000, 17.280000) scale(-1, 1) translate(-92.000000, -17.280000) translate(82.000000, 7.280000)">
            <rect id="Rectangle-Copy-2" x="0" y="0" width="20" height="20"></rect>
            <g id="icons8-search-for-love" opacity="0.75" fill="#031322" fill-rule="nonzero">
                <path d="M11.5244541,0 C6.85266605,0 3.04890883,3.80375722 3.04890883,8.47554528 C3.04890883,10.534706 3.79074896,12.4226465 5.01730614,13.8931523 L0,18.9104579 L1.0895409,20 L6.10684704,14.9826929 C7.57735291,16.2092507 9.46529341,16.9510906 11.5244541,16.9510906 C16.1962425,16.9510906 20,13.1473333 20,8.47554528 C20,3.80375722 16.1962425,0 11.5244541,0 Z M11.5244541,1.54100823 C15.36342,1.54100823 18.4589912,4.63657987 18.4589912,8.47554528 C18.4589912,12.3145107 15.36342,15.4100823 11.5244541,15.4100823 C7.6854887,15.4100823 4.58991706,12.3145107 4.58991706,8.47554528 C4.58991706,4.63657987 7.6854887,1.54100823 11.5244541,1.54100823 Z" id="Shape"></path>
            </g>
        </g>
        <polygon id="Path-2" fill="#0062A9" fill-rule="nonzero" points="94.2765947 29.28 95 29.9810318 88.5 36.28 82 29.9810318 82.7234053 29.28 88.5 34.8780422"></polygon>
        <polygon id="Path-3" fill="#0062A9" fill-rule="nonzero" transform="translate(110.000000, 12.792893) scale(-1, 1) translate(-110.000000, -12.792893) " points="103 1.68405722 104.402064 0.292893219 117 12.7928932 104.402064 25.2928932 103 23.9017292 114.195093 12.7928932"></polygon>
        <polygon id="Path-3" fill="#0062A9" fill-rule="nonzero" points="118 1.68405722 119.402064 0.292893219 132 12.7928932 119.402064 25.2928932 118 23.9017292 129.195093 12.7928932"></polygon>
        <g id="icons8-important-mail" transform="translate(28.000000, 44.000000)" fill="#596678" fill-rule="nonzero">
            <path d="M1.6,0 C0.856,0 0.23385,0.522361369 0.05625,1.22192379 L8,6.27783162 L15.9484376,1.23620608 C15.7756376,0.528518575 15.1496,0 14.4,0 L1.6,0 Z M0,3.03417969 L0,11.375 C0,12.2711875 0.7176,13 1.6,13 L14.4,13 C15.2824,13 16,12.2711875 16,11.375 L16,3.05163576 L8,8.125 L0,3.03417969 Z" id="Shape"></path>
        </g>
        <g id="icons8-twitter" transform="translate(62.000000, 44.000000)" fill="#596678" fill-rule="nonzero">
            <path d="M15.8928959,1.67416667 C15.7805169,1.55555556 15.6075674,1.52172222 15.4601414,1.59094444 L15.3976662,1.62011111 C15.3447148,1.645 15.2917633,1.66988889 15.2384309,1.69438889 C15.3934758,1.442 15.5165214,1.17211111 15.6014723,0.892888889 C15.6487096,0.738888889 15.5972819,0.5705 15.4723316,0.470944444 C15.3473814,0.371388889 15.1751938,0.360888889 15.039958,0.445277778 C14.6052988,0.714777778 14.1877821,0.908833333 13.7561704,1.04416667 C13.1047529,0.399 12.2175299,0 11.238118,0 C9.23929487,0 7.61913197,1.65394444 7.61913197,3.69444444 C7.61913197,3.69638889 7.61913197,3.77338889 7.61913197,3.88888889 L7.23856702,3.85777778 C3.53463007,3.41055556 2.48017182,0.867222222 2.43636304,0.757555556 C2.36550711,0.574777778 2.20931929,0.441388889 2.02075107,0.401333333 C1.8325638,0.3605 1.63713855,0.420777778 1.50075992,0.559611111 C1.42533263,0.637 0.762105827,1.35333333 0.762105827,2.72222222 C0.762105827,3.69755556 1.18800334,4.48855556 1.73923205,5.10377778 C1.48247452,4.94394444 1.33276278,4.81444444 1.32895332,4.81094444 C1.15333726,4.65461111 0.901912971,4.62194444 0.693154619,4.73005556 C0.48515816,4.83855556 0.362493581,5.06527778 0.383445605,5.30288889 C0.390683577,5.38494444 0.552966529,6.94127778 2.31407941,8.1165 L1.99294202,8.176 C1.79827867,8.21216667 1.63561477,8.34866667 1.56323505,8.53688889 C1.49123627,8.7255 1.51942627,8.93822222 1.63828139,9.1 C1.67828071,9.15483333 2.42226805,10.1422222 4.0378596,10.71 C3.17501714,11.0036111 1.98951351,11.2777778 0.571632878,11.2777778 C0.347636691,11.2777778 0.143830636,11.4115556 0.0512607828,11.62 C-0.0416900161,11.8284444 -0.00626204768,12.0730556 0.14154496,12.2449444 C0.20287725,12.3168889 1.68970909,14 5.52392954,14 C11.8906783,14 14.857104,7.96638889 14.857104,3.88888889 L14.857104,3.69444444 C14.857104,3.63688889 14.8510089,3.5805 14.8487232,3.52372222 C15.645662,2.73738889 15.9454664,2.14744444 15.9599424,2.11827778 C16.0319412,1.9705 16.005275,1.79238889 15.8928959,1.67416667 Z" id="Path"></path>
        </g>
        <g id="icons8-facebook" transform="translate(45.000000, 44.000000)" fill="#596678" fill-rule="nonzero">
            <path d="M8,0 C3.5888,0 0,3.61137107 0,8.05031447 C0,12.0778868 2.9576,15.4143396 6.8,16 L6.8,10.0628931 L5.2,10.0628931 C4.9792,10.0628931 4.8,9.88296855 4.8,9.66037736 L4.8,8.45283019 C4.8,8.23023899 4.9792,8.05031447 5.2,8.05031447 L6.8,8.05031447 L6.8,6.58837736 C6.8,4.67602516 7.7708,3.62264151 9.5336,3.62264151 C10.248,3.62264151 10.8116,3.67255346 10.8352,3.67456604 C11.0416,3.69308176 11.2,3.86696855 11.2,4.0754717 L11.2,5.43396226 C11.2,5.65655346 11.0208,5.83647799 10.8,5.83647799 L10,5.83647799 C9.5588,5.83647799 9.2,6.19753459 9.2,6.64150943 L9.2,8.05031447 L10.8,8.05031447 C10.9148,8.05031447 11.024,8.0998239 11.1,8.18636478 C11.176,8.27330818 11.2112,8.38842767 11.1972,8.50274214 L11.0472,9.71028931 C11.022,9.91154717 10.8516,10.0628931 10.65,10.0628931 L9.2,10.0628931 L9.2,16 C13.0424,15.4143396 16,12.0778868 16,8.05031447 C16,3.61137107 12.4112,0 8,0 Z" id="Path"></path>
        </g>
        <g id="icons8-linkedin" transform="translate(79.000000, 44.000000)" fill="#596678" fill-rule="nonzero">
            <path d="M13.5555556,0 L2.44444444,0 C1.09688889,0 0,1.09688889 0,2.44444444 L0,13.5555556 C0,14.9031111 1.09688889,16 2.44444444,16 L13.5555556,16 C14.9031111,16 16,14.9031111 16,13.5555556 L16,2.44444444 C16,1.09688889 14.9031111,0 13.5555556,0 Z M5.33333333,12.4444444 C5.33333333,12.6902222 5.13466667,12.8888889 4.88888889,12.8888889 L3.55555556,12.8888889 C3.30977778,12.8888889 3.11111111,12.6902222 3.11111111,12.4444444 L3.11111111,6.66666667 C3.11111111,6.42088889 3.30977778,6.22222222 3.55555556,6.22222222 L4.88888889,6.22222222 C5.13466667,6.22222222 5.33333333,6.42088889 5.33333333,6.66666667 L5.33333333,12.4444444 Z M4.22222222,5.33333333 C3.60844444,5.33333333 3.11111111,4.836 3.11111111,4.22222222 C3.11111111,3.60844444 3.60844444,3.11111111 4.22222222,3.11111111 C4.836,3.11111111 5.33333333,3.60844444 5.33333333,4.22222222 C5.33333333,4.836 4.836,5.33333333 4.22222222,5.33333333 Z M12.8888889,12.4444444 C12.8888889,12.6902222 12.6902222,12.8888889 12.4444444,12.8888889 L11.1111111,12.8888889 C10.8653333,12.8888889 10.6666667,12.6902222 10.6666667,12.4444444 L10.6666667,9.11111111 C10.6666667,8.49822222 10.1684444,8 9.55555556,8 C8.94266667,8 8.44444444,8.49822222 8.44444444,9.11111111 L8.44444444,12.4444444 C8.44444444,12.6902222 8.24577778,12.8888889 8,12.8888889 L6.66666667,12.8888889 C6.42088889,12.8888889 6.22222222,12.6902222 6.22222222,12.4444444 L6.22222222,6.66666667 C6.22222222,6.42088889 6.42088889,6.22222222 6.66666667,6.22222222 L8,6.22222222 C8.24577778,6.22222222 8.44444444,6.42088889 8.44444444,6.66666667 L8.44444444,6.90711111 C8.91688889,6.48266667 9.53866667,6.22222222 10.2222222,6.22222222 C11.6928889,6.22222222 12.8888889,7.41822222 12.8888889,8.88888889 L12.8888889,12.4444444 Z" id="Shape"></path>
        </g>
        <path d="M98.3432343,37 L100.554455,29 L98.6732673,29 L96,37 L98.3432343,37 Z M103.788779,37 L106,29 L104.118812,29 L101.445545,37 L103.788779,37 Z" id="“" fill="#FF4500" fill-rule="nonzero"></path>
        <g id="icons8-share-3" transform="translate(96.000000, 44.000000)" fill="#596678" fill-rule="nonzero">
            <path d="M11.7656248,0.23437504 L10.6343752,1.36562496 L12.4687504,3.2 L12,3.2 C7.1492744,3.2 3.2,7.1492744 3.2,12 L3.2,12.8 L4.8,12.8 L4.8,12 C4.8,8.0139256 8.0139256,4.8 12,4.8 L12.4687504,4.8 L10.6343752,6.6343752 L11.7656248,7.7656248 L15.5312496,4 L11.7656248,0.23437504 Z M0,4.8 L0,5.6 L0,16 L16,16 L16,12.8 L16,12 L14.4,12 L14.4,12.8 L14.4,14.4 L1.6,14.4 L1.6,5.6 L1.6,4.8 L0,4.8 Z" id="Shape"></path>
        </g>
        <polygon id="Path-Copy-9" fill="#031322" fill-rule="nonzero" points="16 61 10.0361325 67 8.80101205 65.7573964 12.625942 61.9085 1 61.9091214 1 60.0908786 12.626936 60.0905 8.80101205 56.2426036 10.0361325 55"></polygon>
    </g>
</svg>