<svg width="524" height="440" xmlns="http://www.w3.org/2000/svg">
    <path d="M490.858 410.684a354.13 354.13 0 0 1-27.886 11.222c-47.596 11.681-99.394 17.712-151.268 18.094-9.015-.916-17.877-2.138-26.663-3.74 71.127 2.213 143.247-6.337 205.817-25.576zm70.439-42.906a400.65 400.65 0 0 1-14.592 10.841c-67.536 31.225-153.713 46.876-239.89 46.876-26.129 0-52.257-1.451-77.774-4.352a338.394 338.394 0 0 1-13.216-5.039c117.194 15.574 247.453.535 339.13-45.272l1.528-.763 2.407-1.146zm31.17-27.79c-2.063 2.062-4.126 4.124-6.265 6.108-10.313 4.123-20.245 8.551-29.795 13.284l-1.528.764-2.067 1.01c-68.409 33.148-157.203 49.759-245.997 49.759-42.783 0-85.643-3.817-126.134-11.528a386.094 386.094 0 0 1-9.55-5.42c127.433 26.567 280.229 14.047 383.748-37.638l1.528-.764 1.815-.899c10.917-5.364 22.375-10.19 34.245-14.675zm19.787-21.452c-1.451 1.756-2.98 3.436-4.431 5.115-18.183 6.184-35.372 13.208-51.416 21.224l-1.528.763-2.067 1.01c-68.409 33.148-157.203 49.76-245.997 49.76-55.618 0-111.312-6.49-161.811-19.621-2.522-1.832-5.043-3.665-7.564-5.573 133.315 36.721 304.6 26.873 417.516-29.47l1.527-.763 1.74-.851c16.852-8.197 34.977-15.395 54.031-21.594zm14.974-19.01-3.438 4.581c-23.989 7.176-46.679 15.956-67.383 26.263l-1.528.763-2.067 1.01c-68.409 33.148-157.203 49.759-245.997 49.759-66.237 0-132.551-9.238-190.308-27.637a465.826 465.826 0 0 1-6.265-5.726c136.447 46.112 323.928 39.012 444.637-21.223l1.528-.764 1.591-.779c21.27-10.347 44.56-19.096 69.23-26.247zm12.3-17.94c-.917 1.374-1.91 2.824-2.827 4.275-28.802 7.863-55.923 17.864-80.294 30.003l-1.528.764-2.067 1.01c-68.409 33.147-157.203 49.759-245.997 49.759-75.329 0-150.657-11.987-213.457-35.73-1.757-1.908-3.514-3.893-5.271-5.802 137.593 54.892 339.36 50.54 466.792-13.055l1.528-.763 1.547-.76c24.81-12.098 52.312-21.998 81.574-29.701zm10.314-17.102c-.764 1.375-1.604 2.749-2.368 4.123-32.928 8.169-63.716 19.086-91.067 32.752l-1.528.763c-68.605 33.82-158.297 50.77-247.988 50.845-83.197 0-166.319-14.581-232.708-43.668-1.452-1.91-2.98-3.818-4.432-5.803 137.44 63.06 352.043 61.305 485.205-5.191l1.527-.764 1.506-.741c27.663-13.545 58.763-24.293 91.853-32.316zm8.71-16.566c-.688 1.298-1.3 2.672-1.987 3.97-36.29 8.397-70.286 20.078-100.158 34.965l-1.528.764-2.067 1.01c-68.409 33.148-157.203 49.759-245.997 49.759-89.92 0-179.918-17.025-248.447-51.075-1.299-1.832-2.521-3.74-3.743-5.65 1.451.688 2.826 1.375 4.278 2.062 136.752 68.252 359.3 68.252 496.053 0l1.527-.763 1.503-.734c30.116-14.614 64.195-26.123 100.565-34.308zm7.41-16.185c-.535 1.298-1.146 2.595-1.68 3.893-39.193 8.55-75.864 20.766-107.875 36.722l-1.528.763-2.067 1.01c-68.409 33.148-157.203 49.76-245.997 49.76-90.38 0-180.758-17.178-249.593-51.533-3.82-1.985-7.792-3.817-11.765-5.65-.917-1.68-1.91-3.359-2.827-5.038a452.597 452.597 0 0 1 16.197 7.558c136.752 68.252 359.3 68.252 496.052 0l1.528-.764 1.506-.737c32.187-15.67 68.933-27.64 108.049-35.984zm6.341-15.88c-.115.325-.234.644-.356.962l-.74 1.894-.356.961c-41.637 8.55-80.676 21.224-114.444 38.096l-1.528.764-2.067 1.01c-68.409 33.147-157.203 49.759-245.997 49.759-90.38 0-180.758-17.178-249.593-51.533-7.028-3.512-14.363-6.795-21.773-10.001-.764-1.603-1.528-3.13-2.292-4.733a358.202 358.202 0 0 1 25.67 11.604c136.752 68.252 359.3 68.252 496.052 0l1.528-.763 1.491-.731c33.88-16.508 72.844-28.938 114.405-37.289zm5.424-15.498c-.382 1.222-.84 2.52-1.222 3.741-43.776 8.474-84.802 21.53-120.098 39.165l-1.528.763-2.067 1.01c-68.409 33.148-157.203 49.76-245.997 49.76-90.38 0-180.758-17.178-249.593-51.533-9.55-4.734-19.634-9.238-29.871-13.36-.612-1.451-1.223-2.902-1.834-4.429 11.612 4.505 22.767 9.39 33.386 14.735 136.752 68.252 359.3 68.252 496.053 0l1.527-.764 1.45-.712c35.348-17.273 76.233-30.016 119.794-38.376zm4.431-15.345c-.305 1.221-.687 2.443-.993 3.664-45.533 8.475-88.163 21.835-124.758 40.081l-1.528.764-2.067 1.01c-68.409 33.148-157.203 49.759-245.997 49.759-90.38 0-180.758-17.178-249.593-51.533-11.612-5.802-23.912-11.146-36.67-15.88-.536-1.45-1.07-2.824-1.529-4.275 13.905 5.115 27.198 10.841 39.804 17.101 136.752 68.252 359.3 68.252 496.052 0l1.528-.763 1.422-.7c36.582-17.886 79.078-30.938 124.33-39.228zm3.744-15.269c-.306 1.222-.535 2.443-.84 3.665-46.985 8.474-91.067 22.063-128.655 40.844l-1.528.763-2.067 1.01c-68.409 33.148-157.203 49.76-245.997 49.76-90.38 0-180.758-17.178-249.593-51.533-13.293-6.642-27.427-12.673-42.248-18.017-.382-1.375-.84-2.749-1.222-4.123 15.814 5.65 30.864 11.986 45.075 19.01 136.752 68.252 359.3 68.252 496.052 0l1.528-.764 1.39-.682c37.587-18.35 81.467-31.637 128.105-39.933zm2.903-14.963c-.153 1.221-.382 2.366-.611 3.588-48.131 8.398-93.359 22.216-131.787 41.378l-1.528.764-2.067 1.01c-68.409 33.148-157.203 49.759-245.997 49.759-90.38 0-180.758-17.178-249.593-51.533-14.668-7.329-30.253-13.894-46.755-19.544-.306-1.298-.688-2.595-.994-3.97 17.343 5.955 33.845 12.75 49.277 20.46 136.753 68.252 359.3 68.252 496.053 0l1.528-.763 1.37-.674c38.432-18.809 83.313-32.252 131.104-40.475zm2.292-14.888c-.153 1.222-.306 2.367-.459 3.589-49.047 8.321-95.115 22.216-134.23 41.76l-1.529.763-2.067 1.01c-68.409 33.148-157.203 49.76-245.997 49.76-90.38 0-180.758-17.178-249.593-51.533-15.738-7.863-32.545-14.81-50.27-20.842-.229-1.298-.535-2.596-.764-3.894 18.565 6.184 36.213 13.437 52.639 21.606 136.752 68.252 359.3 68.252 496.052 0l1.528-.764 1.373-.671c38.971-18.966 84.689-32.634 133.317-40.784zm1.604-14.81c-.076 1.145-.229 2.366-.305 3.512-49.736 8.321-96.415 22.292-135.989 42.065l-1.528.764-2.067 1.01c-68.409 33.147-157.203 49.759-245.997 49.759-90.38 0-180.758-17.178-249.593-51.533C40.72 162.412 22.92 155.16 4.202 148.9c-.23-1.221-.458-2.52-.611-3.817 19.481 6.413 38.046 13.97 55.236 22.521 136.752 68.252 359.3 68.252 496.052 0l1.528-.763 1.373-.674C597.21 146.9 643.462 133.23 692.7 125.08zm.993-14.735c0 1.145-.076 2.367-.152 3.512-50.194 8.322-97.332 22.445-137.135 42.295l-1.528.763-2.067 1.01c-68.409 33.148-157.203 49.76-245.997 49.76-90.38 0-180.758-17.178-249.593-51.533-17.113-8.55-35.601-16.033-55.16-22.445-.152-1.222-.228-2.52-.381-3.741 20.245 6.565 39.421 14.276 57.146 23.056 136.752 68.252 359.3 68.252 496.052 0l1.528-.764 1.383-.677c39.734-19.34 86.363-33.085 135.904-41.236zM694 95.763v3.512c-50.346 8.322-97.637 22.446-137.593 42.371l-1.528.764-2.067 1.01c-68.409 33.148-157.203 49.759-245.997 49.759-90.38 0-180.758-17.178-249.593-51.533C39.727 132.943 20.78 125.31.764 118.82c-.076-1.297-.153-2.519-.23-3.74 20.628 6.642 40.186 14.429 58.293 23.437 136.752 68.252 359.3 68.252 496.052 0l1.528-.763 1.368-.672C597.515 117.663 644.3 103.915 694 95.763zm-.23-14.352c0 1.145.077 2.29.077 3.435-50.27 8.245-97.484 22.37-137.44 42.295l-1.528.763-2.067 1.01c-68.409 33.148-157.203 49.76-245.997 49.76-90.38 0-180.758-17.178-249.593-51.533-17.724-8.856-36.9-16.567-57.07-23.132 0-1.222-.076-2.443-.076-3.665 20.78 6.718 40.568 14.582 58.75 23.667 136.753 68.252 359.3 68.252 496.053 0l1.528-.764 1.368-.669c39.738-19.344 86.448-33.091 135.996-41.167zm-.84-14.43.23 3.436c-50.041 8.322-97.026 22.369-136.753 42.219l-1.528.763-2.067 1.01c-68.409 33.148-157.203 49.759-245.997 49.759-90.38 0-180.758-17.178-249.593-51.532C39.498 103.78 20.245 96.069 0 89.426c0-1.22.076-2.366.076-3.587 20.857 6.718 40.568 14.581 58.75 23.666 136.753 68.252 359.3 68.252 496.053 0l1.528-.763 1.375-.674c39.507-19.265 85.91-32.936 135.148-41.086zm-1.451-14.276c.153 1.145.23 2.29.382 3.436-49.506 8.321-96.033 22.292-135.454 41.99l-1.528.763-2.067 1.01c-68.409 33.147-157.203 49.759-245.997 49.759-90.38 0-180.758-17.178-249.593-51.533C39.651 89.35 20.627 81.64.535 75.15c.076-1.221.153-2.366.229-3.588C21.315 78.204 40.797 85.992 58.827 95c136.752 68.252 359.3 68.252 496.052 0l1.528-.763 1.378-.675c39.122-19.04 84.99-32.707 133.694-40.857zm-1.986-14.123c.152 1.068.381 2.214.534 3.359-48.894 8.398-94.733 22.292-133.62 41.684l-1.528.763-2.067 1.01c-68.409 33.148-157.203 49.76-245.997 49.76-90.38 0-180.758-17.178-249.593-51.533C39.956 74.92 21.315 67.44 1.681 61.027c.153-1.145.229-2.367.382-3.512C22.232 64.08 41.255 71.79 58.903 80.57c136.752 68.252 359.3 68.252 496.053 0l1.527-.764 1.373-.674c38.511-18.81 83.619-32.328 131.637-40.551zm-2.674-14.124c.229 1.145.458 2.214.687 3.359-47.901 8.398-92.823 22.14-131.099 41.226l-1.528.763-2.067 1.01c-68.409 33.148-157.203 49.76-245.997 49.76-90.38 0-180.758-17.178-249.593-51.533-16.807-8.398-34.914-15.727-53.937-21.987.23-1.222.382-2.367.535-3.512 19.405 6.413 37.893 13.895 55.007 22.445 136.752 68.252 359.3 68.252 496.052 0l1.528-.763 1.38-.68c37.82-18.504 82.009-31.867 129.032-40.088zm-3.21-13.971c.306 1.145.612 2.214.841 3.359-46.755 8.474-90.608 21.987-128.043 40.692l-1.528.763-2.067 1.01C484.403 89.459 395.61 106.07 306.815 106.07c-90.38 0-180.758-17.178-249.593-51.532C41.102 46.52 23.683 39.42 5.424 33.16c.153-1.145.382-2.29.611-3.435 18.565 6.26 36.29 13.513 52.715 21.681 136.753 68.252 359.3 68.252 496.053 0l1.528-.763 1.421-.696c37.04-18.04 80.071-31.17 125.858-39.461zm-3.743-13.818c.382 1.068.688 2.213.994 3.282-45.38 8.55-88.011 21.911-124.453 40.081l-1.528.764-2.067 1.01C484.403 74.952 395.61 91.564 306.815 91.564c-90.38 0-180.758-17.178-249.593-51.533-15.356-7.634-31.781-14.429-49.047-20.46.229-1.069.534-2.214.764-3.36 17.571 6.032 34.226 12.903 49.888 20.69 136.752 68.252 359.3 68.252 496.052 0l1.528-.763 1.436-.703c35.963-17.509 77.617-30.48 122.023-38.767zm-4.278-13.666a54.714 54.714 0 0 0 1.07 3.283c-43.853 8.55-84.879 21.605-120.25 39.24l-1.529.764-2.067 1.01C484.403 60.448 395.61 77.06 306.815 77.06c-90.38 0-180.758-17.178-249.593-51.533C42.86 18.35 27.503 11.937 11.536 6.212c.306-1.146.611-2.214.917-3.36 16.273 5.726 31.858 12.292 46.45 19.545 136.752 68.251 359.3 68.251 496.053 0l1.527-.764 1.465-.72c34.734-16.965 74.924-29.554 117.64-37.91zm-4.966-13.513c.382 1.069.84 2.138 1.223 3.206-42.02 8.551-81.364 21.3-115.438 38.325l-1.528.764-2.067 1.01C484.403 45.941 395.61 62.553 306.815 62.553c-90.38 0-180.758-17.178-249.593-51.533C44.005 4.38 29.872-1.576 15.203-6.996c.382-1.069.688-2.214 1.07-3.283C31.17-4.859 45.38 1.173 58.827 7.891c136.752 68.252 359.3 68.252 496.052 0l1.528-.763 1.519-.743c33.487-16.273 71.831-28.547 112.696-36.895zm-5.5-13.36 1.375 3.206c-40.033 8.55-77.468 20.918-110.09 37.18l-1.528.763-2.067 1.01c-68.409 33.148-157.203 49.76-245.997 49.76-90.38 0-180.758-17.178-249.593-51.533-11.994-6.031-24.6-11.452-37.74-16.262.381-1.145.763-2.214 1.145-3.282 13.294 4.962 26.129 10.459 38.2 16.49 136.752 68.252 359.3 68.252 496.052 0l1.528-.763 1.495-.734c31.96-15.597 68.405-27.567 107.22-35.835zm-6.112-13.284c.534 1.069.993 2.137 1.528 3.206-37.817 8.474-73.19 20.46-104.13 35.882l-1.529.763-2.067 1.01c-68.409 33.148-157.203 49.76-245.997 49.76-90.38 0-180.758-17.178-249.593-51.533a434.531 434.531 0 0 0-33.004-14.582c.459-1.069.84-2.137 1.299-3.206 11.536 4.504 22.69 9.39 33.31 14.658 136.752 68.252 359.3 68.252 496.052 0l1.528-.764 1.51-.74c30.269-14.758 64.572-26.194 101.093-34.454zm-6.723-12.902c.534 1.068 1.146 2.06 1.68 3.13-35.295 8.321-68.376 19.773-97.56 34.355l-1.528.763-2.067 1.01C484.403 2.35 395.61 18.962 306.815 18.962c-90.38 0-180.758-17.178-249.593-51.533a383.461 383.461 0 0 0-27.809-12.444c.535-.993.993-2.062 1.452-3.13 9.626 3.893 19.023 8.016 27.962 12.52 136.752 68.252 359.3 68.252 496.052 0l1.528-.764 1.515-.744c28.353-13.848 60.363-24.823 94.365-32.923zm-7.258-12.674c.611.993 1.222 1.985 1.833 3.054-32.622 8.169-63.257 19.01-90.455 32.6l-1.528.763-2.067 1.01C484.403-12.157 395.61 4.455 306.815 4.455c-90.38 0-180.758-17.178-249.593-51.533-7.181-3.588-14.592-6.947-22.079-10.077.458-1.07.993-2.062 1.528-3.13 7.563 3.206 14.974 6.565 22.156 10.153 136.752 68.252 359.3 68.252 496.052 0l1.528-.763 1.489-.731c26.36-12.869 55.79-23.237 87.133-31.105zm-7.793-12.52c.688.992 1.299 2.061 1.987 3.054-29.796 7.863-57.757 18.093-82.816 30.614l-1.528.763-2.067 1.01C484.403-26.661 395.61-10.05 306.815-10.05c-90.38 0-180.758-17.178-249.593-51.533a343.165 343.165 0 0 0-16.043-7.482c.534-.992 1.146-2.061 1.68-3.054a340.261 340.261 0 0 1 15.968 7.482c136.752 68.252 359.3 68.252 496.052 0l1.528-.763 1.574-.772c24.188-11.789 50.916-21.458 79.255-29.08zm-8.404-12.215c.764.992 1.452 1.985 2.14 2.977-26.74 7.635-51.798 17.025-74.565 28.4l-1.528.764-2.067 1.01C484.403-41.167 395.61-24.556 306.815-24.556c-90.38 0-180.758-17.178-249.593-51.533-3.132-1.603-6.34-3.13-9.473-4.657.535-.992 1.146-1.985 1.757-2.977 3.132 1.527 6.265 2.977 9.32 4.504 136.753 68.252 359.3 68.252 496.053 0l1.528-.763 1.586-.777c21.73-10.576 45.557-19.478 70.84-26.707zm-8.938-11.834a96.27 96.27 0 0 1 2.292 2.902c-23.454 7.1-45.533 15.726-65.779 25.804l-1.528.763-2.067 1.01C484.403-55.672 395.61-39.06 306.815-39.06c-90.38 0-180.758-17.178-249.593-51.533a41.163 41.163 0 0 0-2.597-1.298c.61-.916 1.298-1.909 1.91-2.901l2.292 1.145c136.752 68.252 359.3 68.252 496.052 0l1.528-.763 1.687-.828c19.166-9.342 39.906-17.386 61.8-24.06zm-9.473-11.528a80.53 80.53 0 0 1 2.444 2.825c-20.016 6.49-38.963 14.048-56.458 22.827l-1.528.764-2.067 1.01C484.403-70.255 395.61-53.643 306.815-53.643c-88.317 0-176.71-16.414-244.856-49.166a38.831 38.831 0 0 1 1.986-2.901c137.135 65.732 355.862 64.892 490.934-2.52l1.528-.763 1.685-.829c16.336-7.975 33.94-14.954 52.329-21.006zm-9.932-11.146 2.52 2.749C586.662-133.5 571-127.01 556.408-119.68l-1.528.763-2.067 1.01c-68.409 33.148-157.203 49.76-245.997 49.76-84.955 0-169.986-15.193-236.987-45.578.687-.917 1.451-1.909 2.139-2.825 137.593 61.915 350.514 59.854 482.989-6.26l1.527-.764 1.734-.846c13.324-6.462 27.482-12.358 42.272-17.553zm-10.467-10.688c.84.916 1.757 1.756 2.674 2.672-12.606 4.81-24.753 10.078-36.289 15.803l-1.528.764-2.067 1.01C484.403-99.265 395.61-82.654 306.815-82.654c-81.44 0-162.881-13.971-228.583-41.837a91.69 91.69 0 0 1 2.292-2.825c137.745 58.098 344.631 54.816 474.355-10l1.528-.764 1.893-.926a384.958 384.958 0 0 1 31.722-13.656zm-10.848-10.23c.916.916 1.91 1.756 2.826 2.596-8.862 3.664-17.342 7.481-25.593 11.604l-1.528.763-2.067 1.01c-68.409 33.148-157.203 49.76-245.997 49.76-77.697 0-155.394-12.674-219.34-38.096.765-.917 1.605-1.833 2.446-2.749C227.437-83.95 428.058-88.532 554.879-151.82l1.528-.764 1.84-.911c6.769-3.324 13.783-6.456 20.927-9.395zm-11.23-9.543c.992.763 1.986 1.603 2.979 2.443-4.966 2.137-9.78 4.428-14.516 6.794l-1.528.764-2.067 1.01c-68.409 33.148-157.203 49.759-245.997 49.759-73.725 0-147.449-11.452-209.484-34.202.917-.916 1.757-1.833 2.674-2.749 137.135 50.006 331.11 44.127 454.874-17.635l1.528-.764 1.884-.915a404.727 404.727 0 0 1 9.652-4.505zm-11.46-9.161.756.584c.767.594 1.555 1.21 2.3 1.782-1.07.535-2.14.993-3.133 1.527l-1.528.764-2.067 1.01c-68.409 33.147-157.203 49.758-245.997 49.758-69.446 0-138.968-10.153-198.559-30.537.917-.916 1.834-1.756 2.827-2.672 136.37 45.883 323.393 38.706 443.873-21.453l1.527-.763zm-12.071-8.704c1.07.764 2.215 1.527 3.285 2.29-67.689 31.53-154.248 47.334-240.883 47.334-64.939 0-129.953-8.932-186.946-26.644 1.07-.916 2.062-1.756 3.132-2.672 131.175 40.31 304.37 33.515 421.412-20.308zm-13.294-8.856c1.223.764 2.445 1.527 3.591 2.29-65.55 27.714-146.684 41.608-227.895 41.608-60.05 0-120.175-7.558-173.959-22.903 1.07-.84 2.216-1.756 3.362-2.596 124.452 34.584 282.367 28.4 394.901-18.399zm-14.668-8.627c1.299.688 2.597 1.451 3.896 2.214-62.875 23.896-138.204 35.806-213.532 35.806-54.778 0-109.555-6.337-159.596-18.934l.929-.641 1.886-1.312.929-.642c116.583 28.782 258.76 23.285 365.488-16.49zm-16.578-8.703c1.451.687 2.903 1.374 4.354 2.138-59.437 20.078-128.425 30.08-197.412 30.08-48.972 0-97.943-5.04-143.4-15.117a77.382 77.382 0 0 1 4.202-2.595c107.187 23.056 232.862 18.246 332.256-14.506zm-19.1-8.703c1.68.687 3.362 1.374 5.042 2.138-55.006 16.185-117.042 24.277-179 24.277-42.401 0-84.802-3.817-125.064-11.375 1.604-.84 3.285-1.756 4.89-2.596 95.955 17.33 204.059 13.208 294.132-12.444zm-22.69-8.474 5.959 2.061c-49.353 12.215-103.29 18.323-157.227 18.323-34.838 0-69.675-2.596-103.29-7.711a197.316 197.316 0 0 1 5.882-2.596c81.899 11.757 170.75 8.398 248.676-10.077zm-29.108-8.398c2.674.61 5.272 1.298 7.87 1.985-41.714 8.169-85.872 12.291-130.03 12.291a719.306 719.306 0 0 1-76.093-4.046 228.818 228.818 0 0 1 7.716-2.672c63.334 6.26 129.495 3.74 190.537-7.558zm-45.38-7.94c4.66.458 9.32 1.069 13.98 1.756-29.718 3.893-60.201 5.878-90.76 5.878-12.3 0-24.6-.305-36.824-.992 4.584-.993 9.168-1.985 13.828-2.825 33.386 1.069 67-.152 99.776-3.817z" fill="#E6E8EB" fill-rule="nonzero" opacity=".25"/>
</svg>
